<svg width="139" height="169" viewBox="0 0 139 169" fill="none" xmlns="http://www.w3.org/2000/svg">
<g clip-path="url(#clip0_1081_1440)">
<path d="M129.334 49.6728C129.334 58.7097 122.639 69.0108 114.381 72.681C106.123 76.3512 99.4288 72.0007 99.4288 62.9638C99.4288 53.927 106.123 43.6259 114.381 39.9556C122.639 36.2854 129.334 40.636 129.334 49.6728Z" stroke="#043CCE" stroke-width="8.18133"/>
<g style="mix-blend-mode:screen">
<path fill-rule="evenodd" clip-rule="evenodd" d="M118.111 55.4562C118.154 55.1882 118.176 54.9214 118.176 54.6589C118.176 54.4013 118.155 54.1589 118.113 53.9331L133.116 47.2649C133.125 47.5115 133.129 47.761 133.129 48.0134C133.129 48.2706 133.124 48.5285 133.116 48.7872L118.111 55.4562ZM110.766 58.7205C110.723 58.4909 110.7 58.2442 110.7 57.9817C110.7 57.7241 110.722 57.4624 110.764 57.1995L95.7603 63.8676C95.752 64.1215 95.7478 64.3747 95.7478 64.6272C95.7478 64.8843 95.7521 65.1385 95.7607 65.3895L110.766 58.7205ZM95.8185 66.3865L111.076 59.6052C111.349 60.095 111.756 60.4397 112.255 60.6116L95.993 67.8393C95.9177 67.3686 95.8593 66.8842 95.8185 66.3865ZM117.8 56.6169L133.058 49.8355C133.017 50.3696 132.959 50.9059 132.884 51.4435L116.621 58.6712C117.121 58.0552 117.528 57.3487 117.8 56.6169ZM133.059 46.2676L117.806 53.0467C117.537 52.556 117.133 52.2094 116.637 52.0344L132.886 44.8128C132.961 45.2842 133.019 45.7693 133.059 46.2676ZM95.8173 62.8196L111.07 56.0405C111.34 55.3104 111.743 54.6048 112.24 53.9887L95.9911 61.2103C95.9161 61.7484 95.8579 62.2851 95.8173 62.8196ZM96.1702 68.7833C96.2727 69.2567 96.3933 69.7149 96.5312 70.1572L132.345 54.2397C132.483 53.6749 132.604 53.1096 132.706 52.5449L96.1702 68.7833ZM97.4137 72.3399C97.2033 71.9267 97.0112 71.4943 96.8383 71.0433L132.038 55.3989C131.865 56.0035 131.673 56.6067 131.463 57.207L97.4137 72.3399ZM97.8704 73.1596C98.1216 73.5729 98.393 73.9637 98.6835 74.3315L130.193 60.3272C130.484 59.7012 130.755 59.0691 131.006 58.4326L97.8704 73.1596ZM97.408 55.4499C97.2001 56.044 97.0101 56.6409 96.839 57.2393L132.038 41.5955C131.866 41.1492 131.677 40.7211 131.469 40.3119L97.408 55.4499ZM132.345 42.4816L96.5317 58.3985C96.3926 58.9686 96.271 59.5392 96.1677 60.1091L132.709 43.8686C132.606 43.3905 132.484 42.928 132.345 42.4816ZM97.8638 54.2247C98.114 53.5895 98.3845 52.9588 98.6739 52.3341L130.203 38.3213C130.492 38.6887 130.763 39.0791 131.013 39.4917L97.8638 54.2247ZM101.303 47.6082C101.809 46.8363 102.343 46.083 102.903 45.3526L125.974 35.0991C126.534 35.3316 127.068 35.6098 127.574 35.932L101.303 47.6082ZM100.419 49.0235L128.457 36.5621C128.848 36.8728 129.218 37.213 129.565 37.5818L99.3111 51.0282C99.6589 50.3503 100.029 49.6813 100.419 49.0235ZM124.673 34.6544L104.204 43.7519C105.021 42.8023 105.883 41.9011 106.782 41.0588L122.094 34.2534C122.994 34.2961 123.856 34.4313 124.673 34.6544ZM101.324 76.7224C101.828 77.0412 102.359 77.3166 102.916 77.5469L125.96 67.3051C126.517 66.5798 127.049 65.8319 127.552 65.0655L101.324 76.7224ZM106.782 78.3871C105.888 78.3446 105.032 78.2109 104.219 77.9904L124.657 68.9069C123.845 69.8495 122.989 70.7443 122.095 71.5811L106.782 78.3871ZM100.438 76.0936C100.045 75.7821 99.6723 75.4406 99.3221 75.0703L129.555 61.6337C129.204 62.3153 128.832 62.9878 128.438 63.649L100.438 76.0936ZM114.438 76.7736C112.675 77.5574 110.968 78.0486 109.351 78.2679L119.526 73.7457C117.908 74.9641 116.202 75.9898 114.438 76.7736ZM109.352 38.894L119.525 34.3728C117.907 34.5922 116.201 35.0833 114.438 35.8669C112.675 36.6505 110.969 37.6759 109.352 38.894Z" fill="#0542D3"/>
</g>
<g style="mix-blend-mode:screen">
<path d="M43.0085 88.0324C43.0085 99.1167 34.7973 111.752 24.6684 116.253C14.5395 120.755 6.32835 115.419 6.32835 104.335C6.32835 93.2504 14.5395 80.6155 24.6684 76.1137C34.7973 71.612 43.0085 76.9482 43.0085 88.0324Z" stroke="#043CCE" stroke-width="0.766999"/>
<path d="M43.0085 88.0324C43.0085 99.1167 34.7973 111.752 24.6684 116.253C14.5395 120.755 6.32835 115.419 6.32835 104.335C6.32835 93.2504 14.5395 80.6155 24.6684 76.1137C34.7973 71.612 43.0085 76.9482 43.0085 88.0324Z" stroke="white" stroke-opacity="0.1" stroke-width="0.766999"/>
</g>
<g style="mix-blend-mode:screen">
<path d="M58.009 81.3918C58.009 92.4761 49.7978 105.111 39.6689 109.613C29.54 114.115 21.3288 108.778 21.3288 97.6941C21.3288 86.6098 29.54 73.9748 39.6689 69.4731C49.7978 64.9713 58.009 70.3075 58.009 81.3918Z" stroke="#043CCE" stroke-width="0.766999"/>
<path d="M58.009 81.3918C58.009 92.4761 49.7978 105.111 39.6689 109.613C29.54 114.115 21.3288 108.778 21.3288 97.6941C21.3288 86.6098 29.54 73.9748 39.6689 69.4731C49.7978 64.9713 58.009 70.3075 58.009 81.3918Z" stroke="white" stroke-opacity="0.2" stroke-width="0.766999"/>
</g>
<g style="mix-blend-mode:screen">
<path d="M72.8798 74.7414C72.8798 85.8257 64.6687 98.4606 54.5397 102.962C44.4108 107.464 36.1997 102.128 36.1997 91.0437C36.1997 79.9594 44.4108 67.3245 54.5397 62.8227C64.6687 58.321 72.8798 63.6571 72.8798 74.7414Z" stroke="#043CCE" stroke-width="0.766999"/>
<path d="M72.8798 74.7414C72.8798 85.8257 64.6687 98.4606 54.5397 102.962C44.4108 107.464 36.1997 102.128 36.1997 91.0437C36.1997 79.9594 44.4108 67.3245 54.5397 62.8227C64.6687 58.321 72.8798 63.6571 72.8798 74.7414Z" stroke="white" stroke-opacity="0.3" stroke-width="0.766999"/>
</g>
<g style="mix-blend-mode:screen">
<path d="M87.896 68.1008C87.896 79.185 79.6849 91.82 69.556 96.3218C59.427 100.824 51.2159 95.4873 51.2159 84.4031C51.2159 73.3188 59.427 60.6838 69.556 56.1821C79.6849 51.6803 87.896 57.0165 87.896 68.1008Z" stroke="#043CCE" stroke-width="0.766999"/>
<path d="M87.896 68.1008C87.896 79.185 79.6849 91.82 69.556 96.3218C59.427 100.824 51.2159 95.4873 51.2159 84.4031C51.2159 73.3188 59.427 60.6838 69.556 56.1821C79.6849 51.6803 87.896 57.0165 87.896 68.1008Z" stroke="white" stroke-opacity="0.4" stroke-width="0.766999"/>
</g>
<g style="mix-blend-mode:screen">
<path d="M102.824 61.4582C102.824 72.5425 94.6126 85.1774 84.4837 89.6792C74.3548 94.1809 66.1437 88.8447 66.1437 77.7605C66.1437 66.6762 74.3548 54.0412 84.4837 49.5395C94.6126 45.0378 102.824 50.3739 102.824 61.4582Z" stroke="#043CCE" stroke-width="0.766999"/>
<path d="M102.824 61.4582C102.824 72.5425 94.6126 85.1774 84.4837 89.6792C74.3548 94.1809 66.1437 88.8447 66.1437 77.7605C66.1437 66.6762 74.3548 54.0412 84.4837 49.5395C94.6126 45.0378 102.824 50.3739 102.824 61.4582Z" stroke="white" stroke-opacity="0.5" stroke-width="0.766999"/>
</g>
<g style="mix-blend-mode:screen">
<path d="M117.767 54.8117C117.767 65.896 109.556 78.531 99.4273 83.0327C89.2984 87.5344 81.0873 82.1983 81.0873 71.114C81.0873 60.0297 89.2984 47.3948 99.4273 42.893C109.556 38.3913 117.767 43.7275 117.767 54.8117Z" stroke="#043CCE" stroke-width="0.766999"/>
<path d="M117.767 54.8117C117.767 65.896 109.556 78.531 99.4273 83.0327C89.2984 87.5344 81.0873 82.1983 81.0873 71.114C81.0873 60.0297 89.2984 47.3948 99.4273 42.893C109.556 38.3913 117.767 43.7275 117.767 54.8117Z" stroke="white" stroke-opacity="0.6" stroke-width="0.766999"/>
</g>
<g style="mix-blend-mode:screen" opacity="0.8" filter="url(#filter0_f_1081_1440)">
<path d="M129.344 49.6884C129.344 58.7253 122.649 69.0264 114.391 72.6966C106.133 76.3668 99.4388 72.0163 99.4388 62.9795C99.4388 53.9426 106.133 43.6415 114.391 39.9713C122.649 36.3011 129.344 40.6516 129.344 49.6884Z" stroke="#043CCE" stroke-width="8.18133"/>
<g style="mix-blend-mode:screen">
<path fill-rule="evenodd" clip-rule="evenodd" d="M118.112 55.4705C118.156 55.2023 118.178 54.9353 118.178 54.6726C118.178 54.4145 118.157 54.1717 118.115 53.9455L133.118 47.2773C133.127 47.5242 133.131 47.7742 133.131 48.0271C133.131 48.2844 133.126 48.5426 133.118 48.8014L118.112 55.4705ZM110.768 58.7347C110.725 58.505 110.702 58.2581 110.702 57.9953C110.702 57.7373 110.724 57.4751 110.766 57.2117L95.7623 63.88C95.7539 64.1343 95.7498 64.388 95.7498 64.6408C95.7498 64.8982 95.7541 65.1525 95.7627 65.4037L110.768 58.7347ZM95.8204 66.4007L111.079 59.6193C111.351 60.1096 111.759 60.4543 112.259 60.6259L95.9951 67.8545C95.9198 67.3835 95.8614 66.8987 95.8204 66.4007ZM117.802 56.6312L133.06 49.8498C133.019 50.3842 132.961 50.9208 132.885 51.4588L116.621 58.6874C117.122 58.071 117.529 57.3638 117.802 56.6312ZM133.061 46.28L117.808 53.0593C117.538 52.5686 117.134 52.2222 116.637 52.0475L132.887 44.8252C132.962 45.2966 133.02 45.7817 133.061 46.28ZM95.8194 62.8319L111.073 56.0526C111.342 55.3222 111.747 54.6165 112.243 54.0003L95.9933 61.2226C95.9182 61.7607 95.86 62.2974 95.8194 62.8319ZM96.1724 68.7984C96.2749 69.2709 96.3952 69.7282 96.5328 70.1697L132.348 54.2519C132.485 53.6881 132.606 53.1239 132.708 52.5603L96.1724 68.7984ZM97.4159 72.354C97.2052 71.9403 97.0129 71.5074 96.8398 71.0558L132.041 55.411C131.868 56.0164 131.675 56.6202 131.465 57.2212L97.4159 72.354ZM97.8725 73.1737C98.1237 73.5869 98.3952 73.9778 98.6857 74.3455L130.195 60.3415C130.485 59.7155 130.757 59.0834 131.008 58.4468L97.8725 73.1737ZM97.4106 55.4617C97.2026 56.0559 97.0126 56.653 96.8414 57.2514L132.039 41.608C131.868 41.1617 131.678 40.7336 131.47 40.3243L97.4106 55.4617ZM132.346 42.4941L96.5341 58.4107C96.3948 58.9808 96.2732 59.5515 96.1699 60.1214L132.711 43.8811C132.607 43.403 132.486 42.9405 132.346 42.4941ZM97.8665 54.2365C98.1169 53.6009 98.3876 52.9697 98.6772 52.3447L130.203 38.3331C130.493 38.7007 130.764 39.0913 131.014 39.5042L97.8665 54.2365ZM101.307 47.6184C101.812 46.8479 102.345 46.096 102.905 45.3669L125.976 35.113C126.535 35.3451 127.069 35.6227 127.574 35.9442L101.307 47.6184ZM100.423 49.0338L128.457 36.5742C128.848 36.8848 129.218 37.225 129.566 37.5938L99.3147 51.0387C99.6626 50.3607 100.033 49.6917 100.423 49.0338ZM122.094 34.2669C122.994 34.3096 123.857 34.4448 124.676 34.6683L104.205 43.7663C105.023 42.8155 105.886 41.9133 106.787 41.07L122.094 34.2669ZM101.327 76.7364C101.83 77.0548 102.361 77.3299 102.917 77.56L125.964 67.3168C126.52 66.5923 127.051 65.8454 127.554 65.08L101.327 76.7364ZM106.781 78.4007C105.888 78.358 105.032 78.2242 104.22 78.0036L124.661 68.9185C123.849 69.8609 122.993 70.7556 122.1 71.5923L106.781 78.4007ZM100.441 76.1076C100.047 75.7961 99.6746 75.4547 99.3244 75.0843L129.556 61.648C129.206 62.3296 128.833 63.0022 128.44 63.6634L100.441 76.1076ZM114.44 76.7873C112.675 77.5718 110.967 78.0631 109.349 78.2821L119.532 73.7562C117.913 74.976 116.205 76.0028 114.44 76.7873ZM109.358 38.9045L119.522 34.3871C117.906 34.6068 116.202 35.0977 114.44 35.8806C112.679 36.6635 110.974 37.6878 109.358 38.9045Z" fill="#0542D3"/>
</g>
<g style="mix-blend-mode:screen">
<path d="M43.0057 88.0578C43.0057 99.1421 34.7945 111.777 24.6656 116.279C14.5367 120.781 6.32554 115.444 6.32554 104.36C6.32554 93.2758 14.5367 80.6409 24.6656 76.1391C34.7945 71.6374 43.0057 76.9735 43.0057 88.0578Z" stroke="#043CCE" stroke-width="0.766999"/>
<path d="M43.0057 88.0578C43.0057 99.1421 34.7945 111.777 24.6656 116.279C14.5367 120.781 6.32554 115.444 6.32554 104.36C6.32554 93.2758 14.5367 80.6409 24.6656 76.1391C34.7945 71.6374 43.0057 76.9735 43.0057 88.0578Z" stroke="white" stroke-opacity="0.1" stroke-width="0.766999"/>
</g>
<g style="mix-blend-mode:screen">
<path d="M57.9985 81.4113C57.9985 92.4956 49.7873 105.131 39.6584 109.632C29.5295 114.134 21.3183 108.798 21.3183 97.7136C21.3183 86.6293 29.5295 73.9944 39.6584 69.4926C49.7873 64.9909 57.9985 70.3271 57.9985 81.4113Z" stroke="#043CCE" stroke-width="0.766999"/>
<path d="M57.9985 81.4113C57.9985 92.4956 49.7873 105.131 39.6584 109.632C29.5295 114.134 21.3183 108.798 21.3183 97.7136C21.3183 86.6293 29.5295 73.9944 39.6584 69.4926C49.7873 64.9909 57.9985 70.3271 57.9985 81.4113Z" stroke="white" stroke-opacity="0.2" stroke-width="0.766999"/>
</g>
<g style="mix-blend-mode:screen">
<path d="M72.8796 74.7609C72.8796 85.8452 64.6684 98.4802 54.5395 102.982C44.4106 107.484 36.1994 102.147 36.1994 91.0632C36.1994 79.9789 44.4106 67.344 54.5395 62.8422C64.6684 58.3405 72.8796 63.6767 72.8796 74.7609Z" stroke="#043CCE" stroke-width="0.766999"/>
<path d="M72.8796 74.7609C72.8796 85.8452 64.6684 98.4802 54.5395 102.982C44.4106 107.484 36.1994 102.147 36.1994 91.0632C36.1994 79.9789 44.4106 67.344 54.5395 62.8422C64.6684 58.3405 72.8796 63.6767 72.8796 74.7609Z" stroke="white" stroke-opacity="0.3" stroke-width="0.766999"/>
</g>
<g style="mix-blend-mode:screen">
<path d="M87.888 68.1145C87.888 79.1987 79.6769 91.8337 69.5479 96.3354C59.419 100.837 51.2079 95.501 51.2079 84.4167C51.2079 73.3325 59.419 60.6975 69.5479 56.1957C79.6769 51.694 87.888 57.0302 87.888 68.1145Z" stroke="#043CCE" stroke-width="0.766999"/>
<path d="M87.888 68.1145C87.888 79.1987 79.6769 91.8337 69.5479 96.3354C59.419 100.837 51.2079 95.501 51.2079 84.4167C51.2079 73.3325 59.419 60.6975 69.5479 56.1957C79.6769 51.694 87.888 57.0302 87.888 68.1145Z" stroke="white" stroke-opacity="0.4" stroke-width="0.766999"/>
</g>
<g style="mix-blend-mode:screen">
<path d="M102.824 61.4777C102.824 72.562 94.6124 85.197 84.4835 89.6987C74.3545 94.2005 66.1434 88.8643 66.1434 77.78C66.1434 66.6957 74.3545 54.0608 84.4835 49.559C94.6124 45.0573 102.824 50.3935 102.824 61.4777Z" stroke="#043CCE" stroke-width="0.766999"/>
<path d="M102.824 61.4777C102.824 72.562 94.6124 85.197 84.4835 89.6987C74.3545 94.2005 66.1434 88.8643 66.1434 77.78C66.1434 66.6957 74.3545 54.0608 84.4835 49.559C94.6124 45.0573 102.824 50.3935 102.824 61.4777Z" stroke="white" stroke-opacity="0.5" stroke-width="0.766999"/>
</g>
<g style="mix-blend-mode:screen">
<path d="M117.767 54.8234C117.767 65.9077 109.556 78.5427 99.4268 83.0444C89.2979 87.5462 81.0868 82.21 81.0868 71.1257C81.0868 60.0414 89.2979 47.4065 99.4268 42.9047C109.556 38.403 117.767 43.7392 117.767 54.8234Z" stroke="#043CCE" stroke-width="0.766999"/>
<path d="M117.767 54.8234C117.767 65.9077 109.556 78.5427 99.4268 83.0444C89.2979 87.5462 81.0868 82.21 81.0868 71.1257C81.0868 60.0414 89.2979 47.4065 99.4268 42.9047C109.556 38.403 117.767 43.7392 117.767 54.8234Z" stroke="white" stroke-opacity="0.6" stroke-width="0.766999"/>
</g>
</g>
<g filter="url(#filter1_ddd_1081_1440)">
<path d="M6.54123 159.467L7.78727 157.89C8.09877 157.496 8.09877 156.985 7.78727 156.867L6.54123 156.399C6.15618 156.254 5.60671 156.799 5.60671 157.325V158.348V159.371C5.60671 159.897 6.15619 159.954 6.54123 159.467Z" stroke="#C2CCDB" stroke-width="0.766999"/>
</g>
<g filter="url(#filter2_ddd_1081_1440)">
<path d="M125.967 15.3823L124.721 14.9134C124.41 14.7962 124.41 14.2849 124.721 13.8907L125.967 12.3143C126.352 11.8271 126.902 11.8836 126.902 12.4103V13.4329V14.4556C126.902 14.9823 126.352 15.5272 125.967 15.3823Z" stroke="#C2CCDB" stroke-width="0.766999"/>
</g>
<g filter="url(#filter3_ddd_1081_1440)">
<path d="M17.7774 154.476L19.0235 152.9C19.335 152.506 19.335 151.994 19.0235 151.877L17.7774 151.408C17.3924 151.263 16.8429 151.808 16.8429 152.335V153.358V154.38C16.8429 154.907 17.3924 154.964 17.7774 154.476Z" stroke="#C2CCDB" stroke-width="0.766999"/>
</g>
<g filter="url(#filter4_d_1081_1440)">
<path d="M124.614 105.644L123.368 107.22C123.214 107.415 122.994 107.392 122.994 107.182V106.159V105.136C122.994 104.926 123.214 104.708 123.368 104.766L124.614 105.235C124.739 105.281 124.739 105.486 124.614 105.644Z" fill="url(#paint0_linear_1081_1440)"/>
<path d="M123.508 107.362L124.754 105.786C125.004 105.471 125.004 105.061 124.754 104.968L123.508 104.499C123.2 104.383 122.761 104.819 122.761 105.24V106.263V107.286C122.761 107.707 123.2 107.752 123.508 107.362Z" stroke="#0339C9" stroke-width="0.511333"/>
</g>
<g filter="url(#filter5_d_1081_1440)">
<path d="M128.94 103.352L130.186 101.776C130.34 101.581 130.56 101.604 130.56 101.814L130.56 102.837L130.56 103.86C130.56 104.07 130.34 104.288 130.186 104.23L128.94 103.762C128.815 103.715 128.815 103.51 128.94 103.352Z" fill="url(#paint1_linear_1081_1440)"/>
<path d="M130.046 101.634L128.8 103.21C128.55 103.526 128.55 103.935 128.8 104.028L130.046 104.497C130.354 104.613 130.793 104.177 130.793 103.756L130.793 102.733L130.793 101.711C130.793 101.289 130.354 101.244 130.046 101.634Z" stroke="#0339C9" stroke-width="0.511333"/>
</g>
<g filter="url(#filter6_d_1081_1440)">
<path d="M75.612 100.662L76.712 102.881C76.7807 103.02 76.6676 103.261 76.4985 103.336L75.612 103.73L74.7254 104.124C74.5564 104.199 74.4433 104.059 74.5119 103.859L75.612 100.662ZM75.612 100.662L73.7429 101.493M75.612 100.662L77.481 99.8312" stroke="#BE2425" stroke-width="0.511333" stroke-linecap="round"/>
</g>
<g filter="url(#filter7_d_1081_1440)">
<rect width="0.511334" height="8.18134" rx="0.255666" transform="matrix(0.913812 -0.406138 0 1 69.5371 100.803)" fill="url(#paint2_linear_1081_1440)"/>
<rect x="-0.233631" y="-0.15183" width="1.02267" height="8.69267" rx="0.511333" transform="matrix(0.913812 -0.406138 0 1 69.517 100.708)" stroke="#0339C9" stroke-width="0.511333"/>
</g>
<g filter="url(#filter8_d_1081_1440)">
<rect width="0.511334" height="8.18134" rx="0.255666" transform="matrix(0.913812 -0.406138 0 1 126.559 75.4609)" fill="url(#paint3_linear_1081_1440)"/>
<rect x="-0.233631" y="-0.15183" width="1.02267" height="8.69267" rx="0.511333" transform="matrix(0.913812 -0.406138 0 1 126.539 75.3661)" stroke="#0339C9" stroke-width="0.511333"/>
</g>
<g filter="url(#filter9_d_1081_1440)">
<rect width="0.511334" height="4.09067" rx="0.255666" transform="matrix(0.913812 -0.406138 0 1 94.7637 91.6328)" fill="url(#paint4_linear_1081_1440)"/>
<rect x="-0.233631" y="-0.15183" width="1.02267" height="4.602" rx="0.511333" transform="matrix(0.913812 -0.406138 0 1 94.7435 91.5379)" stroke="#0339C9" stroke-width="0.511333"/>
</g>
<g filter="url(#filter10_d_1081_1440)">
<rect width="0.511334" height="4.09067" rx="0.255666" transform="matrix(0.913812 -0.406138 0 1 132.584 74.8008)" fill="url(#paint5_linear_1081_1440)"/>
<rect x="-0.233631" y="-0.15183" width="1.02267" height="4.602" rx="0.511333" transform="matrix(0.913812 -0.406138 0 1 132.564 74.7059)" stroke="#0339C9" stroke-width="0.511333"/>
</g>
<g filter="url(#filter11_ddd_1081_1440)">
<path d="M131.647 13.2191C132.615 12.789 133.4 11.5818 133.4 10.5228C133.4 9.46383 132.615 8.95401 131.647 9.38411C130.68 9.81421 129.895 11.0214 129.895 12.0804C129.895 13.1394 130.68 13.6492 131.647 13.2191Z" stroke="#C2CCDB" stroke-width="0.766999"/>
</g>
<g filter="url(#filter12_ddd_1081_1440)">
<path d="M54.6347 47.4906C55.6024 47.0605 56.3869 45.8533 56.3869 44.7943C56.3869 43.7353 55.6024 43.2255 54.6347 43.6556C53.667 44.0857 52.8825 45.2929 52.8825 46.3519C52.8825 47.4109 53.667 47.9207 54.6347 47.4906Z" stroke="#C2CCDB" stroke-width="0.766999"/>
</g>
<g filter="url(#filter13_d_1081_1440)">
<path d="M10.0274 64.8671C10.0629 64.8677 10.0881 64.8851 10.1031 64.9194V67.7113C10.09 67.7662 10.0601 67.8132 10.0134 67.8524L6.17528 69.5582V68.871L9.4835 67.4007V65.793L6.17528 67.2634V66.5792L10.0274 64.8671ZM14.464 62.8861L12.9557 66.5447L12.0137 66.9634L10.6287 64.8484V64.7073L10.7044 64.5785L10.7969 64.5159L12.0613 63.954L12.6977 64.9106L12.0417 65.2022L11.6324 64.4821L11.324 64.6192L12.423 66.3028L12.5632 66.2405L13.8472 63.1602L14.464 62.8861ZM18.8284 60.9955L18.8508 61.0346L18.8677 61.1376V63.7331L18.8536 63.8344L18.8312 63.8965L18.7751 63.9399L18.6686 64.0056L15.0941 65.5943L14.9819 65.6319L14.9258 65.6231L14.9034 65.5717L14.8866 65.4871V62.9069L14.9006 62.8087L14.923 62.7312L14.9791 62.6756L15.0856 62.6221L18.6686 61.0297L18.7807 60.9952L18.8284 60.9955ZM18.3266 63.4367V61.8628L15.5034 63.1175V64.6914L18.3266 63.4367ZM20.0921 60.4123L22.7555 59.2286L23.5377 59.8474V60.0039L22.848 60.3104L22.534 59.9928L20.3248 60.9747L19.9968 61.5776L19.3099 61.8829V61.7264L20.0921 60.4123ZM20.5715 61.313L22.3462 60.5242V61.236L20.5715 62.0247V61.313ZM19.3015 62.672L19.9912 62.3655L20.3136 62.618L22.5284 61.6336L22.8452 61.1032L23.5321 60.7979V60.936L22.7499 62.1948L20.0837 63.3798L19.3015 62.8162V62.672ZM27.2648 57.2245L27.2564 57.2804L25.0023 61.1907L24.1837 61.5545L25.1032 60.0106L24.1052 60.4542L24.5313 59.5837L25.6443 59.0891L26.0088 58.4638L23.9594 59.3716L24.3603 58.5154L27.2648 57.2245ZM29.0065 56.4289L31.0783 57.7815V55.5081L31.6614 55.2489V58.231L30.8624 58.5862L28.1346 56.8165L29.0065 56.4289ZM27.9075 58.4821L30.027 58.3807L29.8391 59.041L27.7112 59.1614L27.9075 58.4821ZM36.3953 53.1358V53.823L32.1507 55.7095V55.0223L36.3953 53.1358ZM32.8796 55.8457L35.6664 54.6072V55.2944L32.8796 56.533V55.8457ZM32.1507 57.3233L36.3953 55.4368V56.1271L32.1507 58.0136V57.3233Z" fill="#009D5F"/>
</g>
</g>
<defs>
<filter id="filter0_f_1081_1440" x="2.39577" y="30.6726" width="134.314" height="91.1977" filterUnits="userSpaceOnUse" color-interpolation-filters="sRGB">
<feFlood flood-opacity="0" result="BackgroundImageFix"/>
<feBlend mode="normal" in="SourceGraphic" in2="BackgroundImageFix" result="shape"/>
<feGaussianBlur stdDeviation="1.78966" result="effect1_foregroundBlur_1081_1440"/>
</filter>
<filter id="filter1_ddd_1081_1440" x="3.21089" y="153.916" width="7.20578" height="8.34457" filterUnits="userSpaceOnUse" color-interpolation-filters="sRGB">
<feFlood flood-opacity="0" result="BackgroundImageFix"/>
<feColorMatrix in="SourceAlpha" type="matrix" values="0 0 0 0 0 0 0 0 0 0 0 0 0 0 0 0 0 0 127 0" result="hardAlpha"/>
<feOffset/>
<feGaussianBlur stdDeviation="1.02267"/>
<feColorMatrix type="matrix" values="0 0 0 0 0.0117647 0 0 0 0 0.223529 0 0 0 0 0.788235 0 0 0 1 0"/>
<feBlend mode="normal" in2="BackgroundImageFix" result="effect1_dropShadow_1081_1440"/>
<feColorMatrix in="SourceAlpha" type="matrix" values="0 0 0 0 0 0 0 0 0 0 0 0 0 0 0 0 0 0 127 0" result="hardAlpha"/>
<feOffset/>
<feGaussianBlur stdDeviation="1.02267"/>
<feColorMatrix type="matrix" values="0 0 0 0 0.0117647 0 0 0 0 0.223529 0 0 0 0 0.788235 0 0 0 0.25 0"/>
<feBlend mode="normal" in2="effect1_dropShadow_1081_1440" result="effect2_dropShadow_1081_1440"/>
<feColorMatrix in="SourceAlpha" type="matrix" values="0 0 0 0 0 0 0 0 0 0 0 0 0 0 0 0 0 0 127 0" result="hardAlpha"/>
<feOffset/>
<feGaussianBlur stdDeviation="0.511333"/>
<feColorMatrix type="matrix" values="0 0 0 0 0.0117647 0 0 0 0 0.223529 0 0 0 0 0.788235 0 0 0 0.25 0"/>
<feBlend mode="normal" in2="effect2_dropShadow_1081_1440" result="effect3_dropShadow_1081_1440"/>
<feBlend mode="normal" in="SourceGraphic" in2="effect3_dropShadow_1081_1440" result="shape"/>
</filter>
<filter id="filter2_ddd_1081_1440" x="122.092" y="9.52107" width="7.2059" height="8.34457" filterUnits="userSpaceOnUse" color-interpolation-filters="sRGB">
<feFlood flood-opacity="0" result="BackgroundImageFix"/>
<feColorMatrix in="SourceAlpha" type="matrix" values="0 0 0 0 0 0 0 0 0 0 0 0 0 0 0 0 0 0 127 0" result="hardAlpha"/>
<feOffset/>
<feGaussianBlur stdDeviation="1.02267"/>
<feColorMatrix type="matrix" values="0 0 0 0 0.0117647 0 0 0 0 0.223529 0 0 0 0 0.788235 0 0 0 1 0"/>
<feBlend mode="normal" in2="BackgroundImageFix" result="effect1_dropShadow_1081_1440"/>
<feColorMatrix in="SourceAlpha" type="matrix" values="0 0 0 0 0 0 0 0 0 0 0 0 0 0 0 0 0 0 127 0" result="hardAlpha"/>
<feOffset/>
<feGaussianBlur stdDeviation="1.02267"/>
<feColorMatrix type="matrix" values="0 0 0 0 0.0117647 0 0 0 0 0.223529 0 0 0 0 0.788235 0 0 0 0.25 0"/>
<feBlend mode="normal" in2="effect1_dropShadow_1081_1440" result="effect2_dropShadow_1081_1440"/>
<feColorMatrix in="SourceAlpha" type="matrix" values="0 0 0 0 0 0 0 0 0 0 0 0 0 0 0 0 0 0 127 0" result="hardAlpha"/>
<feOffset/>
<feGaussianBlur stdDeviation="0.511333"/>
<feColorMatrix type="matrix" values="0 0 0 0 0.0117647 0 0 0 0 0.223529 0 0 0 0 0.788235 0 0 0 0.25 0"/>
<feBlend mode="normal" in2="effect2_dropShadow_1081_1440" result="effect3_dropShadow_1081_1440"/>
<feBlend mode="normal" in="SourceGraphic" in2="effect3_dropShadow_1081_1440" result="shape"/>
</filter>
<filter id="filter3_ddd_1081_1440" x="14.4471" y="148.925" width="7.20578" height="8.34457" filterUnits="userSpaceOnUse" color-interpolation-filters="sRGB">
<feFlood flood-opacity="0" result="BackgroundImageFix"/>
<feColorMatrix in="SourceAlpha" type="matrix" values="0 0 0 0 0 0 0 0 0 0 0 0 0 0 0 0 0 0 127 0" result="hardAlpha"/>
<feOffset/>
<feGaussianBlur stdDeviation="1.02267"/>
<feColorMatrix type="matrix" values="0 0 0 0 0.0117647 0 0 0 0 0.223529 0 0 0 0 0.788235 0 0 0 1 0"/>
<feBlend mode="normal" in2="BackgroundImageFix" result="effect1_dropShadow_1081_1440"/>
<feColorMatrix in="SourceAlpha" type="matrix" values="0 0 0 0 0 0 0 0 0 0 0 0 0 0 0 0 0 0 127 0" result="hardAlpha"/>
<feOffset/>
<feGaussianBlur stdDeviation="1.02267"/>
<feColorMatrix type="matrix" values="0 0 0 0 0.0117647 0 0 0 0 0.223529 0 0 0 0 0.788235 0 0 0 0.25 0"/>
<feBlend mode="normal" in2="effect1_dropShadow_1081_1440" result="effect2_dropShadow_1081_1440"/>
<feColorMatrix in="SourceAlpha" type="matrix" values="0 0 0 0 0 0 0 0 0 0 0 0 0 0 0 0 0 0 127 0" result="hardAlpha"/>
<feOffset/>
<feGaussianBlur stdDeviation="0.511333"/>
<feColorMatrix type="matrix" values="0 0 0 0 0.0117647 0 0 0 0 0.223529 0 0 0 0 0.788235 0 0 0 0.25 0"/>
<feBlend mode="normal" in2="effect2_dropShadow_1081_1440" result="effect3_dropShadow_1081_1440"/>
<feBlend mode="normal" in="SourceGraphic" in2="effect3_dropShadow_1081_1440" result="shape"/>
</filter>
<filter id="filter4_d_1081_1440" x="119.459" y="101.135" width="8.78394" height="9.83912" filterUnits="userSpaceOnUse" color-interpolation-filters="sRGB">
<feFlood flood-opacity="0" result="BackgroundImageFix"/>
<feColorMatrix in="SourceAlpha" type="matrix" values="0 0 0 0 0 0 0 0 0 0 0 0 0 0 0 0 0 0 127 0" result="hardAlpha"/>
<feOffset/>
<feGaussianBlur stdDeviation="1.534"/>
<feColorMatrix type="matrix" values="0 0 0 0 0.0117647 0 0 0 0 0.223529 0 0 0 0 0.788235 0 0 0 1 0"/>
<feBlend mode="normal" in2="BackgroundImageFix" result="effect1_dropShadow_1081_1440"/>
<feBlend mode="normal" in="SourceGraphic" in2="effect1_dropShadow_1081_1440" result="shape"/>
</filter>
<filter id="filter5_d_1081_1440" x="125.311" y="98.0218" width="8.78394" height="9.83911" filterUnits="userSpaceOnUse" color-interpolation-filters="sRGB">
<feFlood flood-opacity="0" result="BackgroundImageFix"/>
<feColorMatrix in="SourceAlpha" type="matrix" values="0 0 0 0 0 0 0 0 0 0 0 0 0 0 0 0 0 0 127 0" result="hardAlpha"/>
<feOffset/>
<feGaussianBlur stdDeviation="1.534"/>
<feColorMatrix type="matrix" values="0 0 0 0 0.0117647 0 0 0 0 0.223529 0 0 0 0 0.788235 0 0 0 1 0"/>
<feBlend mode="normal" in2="BackgroundImageFix" result="effect1_dropShadow_1081_1440"/>
<feBlend mode="normal" in="SourceGraphic" in2="effect1_dropShadow_1081_1440" result="shape"/>
</filter>
<filter id="filter6_d_1081_1440" x="72.4866" y="98.532" width="6.25065" height="6.91057" filterUnits="userSpaceOnUse" color-interpolation-filters="sRGB">
<feFlood flood-opacity="0" result="BackgroundImageFix"/>
<feColorMatrix in="SourceAlpha" type="matrix" values="0 0 0 0 0 0 0 0 0 0 0 0 0 0 0 0 0 0 127 0" result="hardAlpha"/>
<feOffset/>
<feGaussianBlur stdDeviation="0.511333"/>
<feColorMatrix type="matrix" values="0 0 0 0 0.486275 0 0 0 0 0.0901961 0 0 0 0 0.0941176 0 0 0 1 0"/>
<feBlend mode="normal" in2="BackgroundImageFix" result="effect1_dropShadow_1081_1440"/>
<feBlend mode="normal" in="SourceGraphic" in2="effect1_dropShadow_1081_1440" result="shape"/>
</filter>
<filter id="filter7_d_1081_1440" x="66.0018" y="97.059" width="7.53785" height="15.4622" filterUnits="userSpaceOnUse" color-interpolation-filters="sRGB">
<feFlood flood-opacity="0" result="BackgroundImageFix"/>
<feColorMatrix in="SourceAlpha" type="matrix" values="0 0 0 0 0 0 0 0 0 0 0 0 0 0 0 0 0 0 127 0" result="hardAlpha"/>
<feOffset/>
<feGaussianBlur stdDeviation="1.534"/>
<feColorMatrix type="matrix" values="0 0 0 0 0.0117647 0 0 0 0 0.223529 0 0 0 0 0.788235 0 0 0 1 0"/>
<feBlend mode="normal" in2="BackgroundImageFix" result="effect1_dropShadow_1081_1440"/>
<feBlend mode="normal" in="SourceGraphic" in2="effect1_dropShadow_1081_1440" result="shape"/>
</filter>
<filter id="filter8_d_1081_1440" x="123.024" y="71.7172" width="7.53785" height="15.4622" filterUnits="userSpaceOnUse" color-interpolation-filters="sRGB">
<feFlood flood-opacity="0" result="BackgroundImageFix"/>
<feColorMatrix in="SourceAlpha" type="matrix" values="0 0 0 0 0 0 0 0 0 0 0 0 0 0 0 0 0 0 127 0" result="hardAlpha"/>
<feOffset/>
<feGaussianBlur stdDeviation="1.534"/>
<feColorMatrix type="matrix" values="0 0 0 0 0.0117647 0 0 0 0 0.223529 0 0 0 0 0.788235 0 0 0 1 0"/>
<feBlend mode="normal" in2="BackgroundImageFix" result="effect1_dropShadow_1081_1440"/>
<feBlend mode="normal" in="SourceGraphic" in2="effect1_dropShadow_1081_1440" result="shape"/>
</filter>
<filter id="filter9_d_1081_1440" x="91.2284" y="87.889" width="7.53785" height="11.3704" filterUnits="userSpaceOnUse" color-interpolation-filters="sRGB">
<feFlood flood-opacity="0" result="BackgroundImageFix"/>
<feColorMatrix in="SourceAlpha" type="matrix" values="0 0 0 0 0 0 0 0 0 0 0 0 0 0 0 0 0 0 127 0" result="hardAlpha"/>
<feOffset/>
<feGaussianBlur stdDeviation="1.534"/>
<feColorMatrix type="matrix" values="0 0 0 0 0.0117647 0 0 0 0 0.223529 0 0 0 0 0.788235 0 0 0 1 0"/>
<feBlend mode="normal" in2="BackgroundImageFix" result="effect1_dropShadow_1081_1440"/>
<feBlend mode="normal" in="SourceGraphic" in2="effect1_dropShadow_1081_1440" result="shape"/>
</filter>
<filter id="filter10_d_1081_1440" x="129.049" y="71.057" width="7.53785" height="11.3704" filterUnits="userSpaceOnUse" color-interpolation-filters="sRGB">
<feFlood flood-opacity="0" result="BackgroundImageFix"/>
<feColorMatrix in="SourceAlpha" type="matrix" values="0 0 0 0 0 0 0 0 0 0 0 0 0 0 0 0 0 0 127 0" result="hardAlpha"/>
<feOffset/>
<feGaussianBlur stdDeviation="1.534"/>
<feColorMatrix type="matrix" values="0 0 0 0 0.0117647 0 0 0 0 0.223529 0 0 0 0 0.788235 0 0 0 1 0"/>
<feBlend mode="normal" in2="BackgroundImageFix" result="effect1_dropShadow_1081_1440"/>
<feBlend mode="normal" in="SourceGraphic" in2="effect1_dropShadow_1081_1440" result="shape"/>
</filter>
<filter id="filter11_ddd_1081_1440" x="127.499" y="6.77303" width="8.29599" height="9.05746" filterUnits="userSpaceOnUse" color-interpolation-filters="sRGB">
<feFlood flood-opacity="0" result="BackgroundImageFix"/>
<feColorMatrix in="SourceAlpha" type="matrix" values="0 0 0 0 0 0 0 0 0 0 0 0 0 0 0 0 0 0 127 0" result="hardAlpha"/>
<feOffset/>
<feGaussianBlur stdDeviation="1.02267"/>
<feColorMatrix type="matrix" values="0 0 0 0 0.0117647 0 0 0 0 0.223529 0 0 0 0 0.788235 0 0 0 1 0"/>
<feBlend mode="normal" in2="BackgroundImageFix" result="effect1_dropShadow_1081_1440"/>
<feColorMatrix in="SourceAlpha" type="matrix" values="0 0 0 0 0 0 0 0 0 0 0 0 0 0 0 0 0 0 127 0" result="hardAlpha"/>
<feOffset/>
<feGaussianBlur stdDeviation="1.02267"/>
<feColorMatrix type="matrix" values="0 0 0 0 0.0117647 0 0 0 0 0.223529 0 0 0 0 0.788235 0 0 0 0.25 0"/>
<feBlend mode="normal" in2="effect1_dropShadow_1081_1440" result="effect2_dropShadow_1081_1440"/>
<feColorMatrix in="SourceAlpha" type="matrix" values="0 0 0 0 0 0 0 0 0 0 0 0 0 0 0 0 0 0 127 0" result="hardAlpha"/>
<feOffset/>
<feGaussianBlur stdDeviation="0.511333"/>
<feColorMatrix type="matrix" values="0 0 0 0 0.0117647 0 0 0 0 0.223529 0 0 0 0 0.788235 0 0 0 0.25 0"/>
<feBlend mode="normal" in2="effect2_dropShadow_1081_1440" result="effect3_dropShadow_1081_1440"/>
<feBlend mode="normal" in="SourceGraphic" in2="effect3_dropShadow_1081_1440" result="shape"/>
</filter>
<filter id="filter12_ddd_1081_1440" x="50.4867" y="41.0445" width="8.29599" height="9.05746" filterUnits="userSpaceOnUse" color-interpolation-filters="sRGB">
<feFlood flood-opacity="0" result="BackgroundImageFix"/>
<feColorMatrix in="SourceAlpha" type="matrix" values="0 0 0 0 0 0 0 0 0 0 0 0 0 0 0 0 0 0 127 0" result="hardAlpha"/>
<feOffset/>
<feGaussianBlur stdDeviation="1.02267"/>
<feColorMatrix type="matrix" values="0 0 0 0 0.0117647 0 0 0 0 0.223529 0 0 0 0 0.788235 0 0 0 1 0"/>
<feBlend mode="normal" in2="BackgroundImageFix" result="effect1_dropShadow_1081_1440"/>
<feColorMatrix in="SourceAlpha" type="matrix" values="0 0 0 0 0 0 0 0 0 0 0 0 0 0 0 0 0 0 127 0" result="hardAlpha"/>
<feOffset/>
<feGaussianBlur stdDeviation="1.02267"/>
<feColorMatrix type="matrix" values="0 0 0 0 0.0117647 0 0 0 0 0.223529 0 0 0 0 0.788235 0 0 0 0.25 0"/>
<feBlend mode="normal" in2="effect1_dropShadow_1081_1440" result="effect2_dropShadow_1081_1440"/>
<feColorMatrix in="SourceAlpha" type="matrix" values="0 0 0 0 0 0 0 0 0 0 0 0 0 0 0 0 0 0 127 0" result="hardAlpha"/>
<feOffset/>
<feGaussianBlur stdDeviation="0.511333"/>
<feColorMatrix type="matrix" values="0 0 0 0 0.0117647 0 0 0 0 0.223529 0 0 0 0 0.788235 0 0 0 0.25 0"/>
<feBlend mode="normal" in2="effect2_dropShadow_1081_1440" result="effect3_dropShadow_1081_1440"/>
<feBlend mode="normal" in="SourceGraphic" in2="effect3_dropShadow_1081_1440" result="shape"/>
</filter>
<filter id="filter13_d_1081_1440" x="5.40829" y="52.3697" width="31.754" height="17.9578" filterUnits="userSpaceOnUse" color-interpolation-filters="sRGB">
<feFlood flood-opacity="0" result="BackgroundImageFix"/>
<feColorMatrix in="SourceAlpha" type="matrix" values="0 0 0 0 0 0 0 0 0 0 0 0 0 0 0 0 0 0 127 0" result="hardAlpha"/>
<feOffset/>
<feGaussianBlur stdDeviation="0.3835"/>
<feColorMatrix type="matrix" values="0 0 0 0 0 0 0 0 0 0.745833 0 0 0 0 0.398934 0 0 0 0.7 0"/>
<feBlend mode="normal" in2="BackgroundImageFix" result="effect1_dropShadow_1081_1440"/>
<feBlend mode="normal" in="SourceGraphic" in2="effect1_dropShadow_1081_1440" result="shape"/>
</filter>
<linearGradient id="paint0_linear_1081_1440" x1="122.172" y1="108.059" x2="123.929" y2="108.059" gradientUnits="userSpaceOnUse">
<stop stop-color="#0061F3"/>
<stop offset="1" stop-color="#00AAF0"/>
</linearGradient>
<linearGradient id="paint1_linear_1081_1440" x1="131.382" y1="100.938" x2="129.625" y2="100.938" gradientUnits="userSpaceOnUse">
<stop stop-color="#0061F3"/>
<stop offset="1" stop-color="#00AAF0"/>
</linearGradient>
<linearGradient id="paint2_linear_1081_1440" x1="-0.224987" y1="8.18134" x2="0.255667" y2="8.18134" gradientUnits="userSpaceOnUse">
<stop stop-color="#0061F3"/>
<stop offset="1" stop-color="#00AAF0"/>
</linearGradient>
<linearGradient id="paint3_linear_1081_1440" x1="-0.224987" y1="8.18134" x2="0.255667" y2="8.18134" gradientUnits="userSpaceOnUse">
<stop stop-color="#0061F3"/>
<stop offset="1" stop-color="#00AAF0"/>
</linearGradient>
<linearGradient id="paint4_linear_1081_1440" x1="-0.224987" y1="4.09067" x2="0.255667" y2="4.09067" gradientUnits="userSpaceOnUse">
<stop stop-color="#0061F3"/>
<stop offset="1" stop-color="#00AAF0"/>
</linearGradient>
<linearGradient id="paint5_linear_1081_1440" x1="-0.224987" y1="4.09067" x2="0.255667" y2="4.09067" gradientUnits="userSpaceOnUse">
<stop stop-color="#0061F3"/>
<stop offset="1" stop-color="#00AAF0"/>
</linearGradient>
<clipPath id="clip0_1081_1440">
<rect width="151.355" height="106.357" fill="white" transform="matrix(0.913812 -0.406138 0 1 0.5 62.0469)"/>
</clipPath>
</defs>
</svg>
