<svg width="22" height="22" viewBox="0 0 22 22" fill="none" xmlns="http://www.w3.org/2000/svg">
<path d="M19.3475 13.875H15.375C14.9109 13.875 14.4658 14.0594 14.1376 14.3876C13.8094 14.7158 13.625 15.1609 13.625 15.625V19.5975" stroke="black" stroke-width="1.3125" stroke-linecap="round" stroke-linejoin="round"/>
<path d="M6.625 3.67188V5.12437C6.625 5.82057 6.90156 6.48825 7.39384 6.98053C7.88613 7.47281 8.55381 7.74937 9.25 7.74937C9.71413 7.74937 10.1592 7.93375 10.4874 8.26194C10.8156 8.59013 11 9.03525 11 9.49937C11 10.4619 11.7875 11.2494 12.75 11.2494C13.2141 11.2494 13.6592 11.065 13.9874 10.7368C14.3156 10.4086 14.5 9.9635 14.5 9.49937C14.5 8.53687 15.2875 7.74937 16.25 7.74937H19.0237" stroke="black" stroke-width="1.3125" stroke-linecap="round" stroke-linejoin="round"/>
<path d="M10.1242 19.9563V16.5C10.1242 16.0359 9.93984 15.5908 9.61165 15.2626C9.28346 14.9344 8.83835 14.75 8.37422 14.75C7.91009 14.75 7.46497 14.5656 7.13678 14.2374C6.80859 13.9092 6.62422 13.4641 6.62422 13V12.125C6.62422 11.6609 6.43984 11.2158 6.11165 10.8876C5.78347 10.5594 5.33835 10.375 4.87422 10.375H2.29297" stroke="black" stroke-width="1.3125" stroke-linecap="round" stroke-linejoin="round"/>
<path d="M11 20C15.8325 20 19.75 16.0825 19.75 11.25C19.75 6.41751 15.8325 2.5 11 2.5C6.16751 2.5 2.25 6.41751 2.25 11.25C2.25 16.0825 6.16751 20 11 20Z" stroke="black" stroke-width="1.3125" stroke-linecap="round" stroke-linejoin="round"/>
</svg>
